<svg width="15" height="15" viewBox="0 0 15 15" fill="none" xmlns="http://www.w3.org/2000/svg">
<path d="M7.5 1.25C4.05625 1.25 1.25 4.05625 1.25 7.5C1.25 10.9438 4.05625 13.75 7.5 13.75C10.9438 13.75 13.75 10.9438 13.75 7.5C13.75 4.05625 10.9438 1.25 7.5 1.25ZM10.4875 6.0625L6.94375 9.60625C6.85625 9.69375 6.7375 9.74375 6.6125 9.74375C6.4875 9.74375 6.36875 9.69375 6.28125 9.60625L4.5125 7.8375C4.33125 7.65625 4.33125 7.35625 4.5125 7.175C4.69375 6.99375 4.99375 6.99375 5.175 7.175L6.6125 8.6125L9.825 5.4C10.0063 5.21875 10.3063 5.21875 10.4875 5.4C10.6688 5.58125 10.6688 5.875 10.4875 6.0625Z" fill="#3D4754"/>
<path d="M7.5 1.25C4.05625 1.25 1.25 4.05625 1.25 7.5C1.25 10.9438 4.05625 13.75 7.5 13.75C10.9438 13.75 13.75 10.9438 13.75 7.5C13.75 4.05625 10.9438 1.25 7.5 1.25ZM10.4875 6.0625L6.94375 9.60625C6.85625 9.69375 6.7375 9.74375 6.6125 9.74375C6.4875 9.74375 6.36875 9.69375 6.28125 9.60625L4.5125 7.8375C4.33125 7.65625 4.33125 7.35625 4.5125 7.175C4.69375 6.99375 4.99375 6.99375 5.175 7.175L6.6125 8.6125L9.825 5.4C10.0063 5.21875 10.3063 5.21875 10.4875 5.4C10.6688 5.58125 10.6688 5.875 10.4875 6.0625Z" fill="url(#paint0_linear_84_2690)"/>
<defs>
<linearGradient id="paint0_linear_84_2690" x1="7.50666" y1="-5.17458" x2="7.32352" y2="20.7669" gradientUnits="userSpaceOnUse">
<stop stop-color="#07FFF1"/>
<stop offset="1" stop-color="#0862C2"/>
</linearGradient>
</defs>
</svg>
