<svg width="248" height="240" viewBox="0 0 248 240" fill="none" xmlns="http://www.w3.org/2000/svg">
<g clip-path="url(#clip0_15_3870)">
<g clip-path="url(#clip1_15_3870)">
<path d="M40.669 152.545L37.7959 140.728L42.1056 116.737L50.725 100.623L51.8025 95.6094L50.725 88.8057L44.2605 81.2859L39.9508 66.6043L46.0562 59.0845L45.3379 54.4293L44.6196 34.3764L46.0562 25.4243L49.2885 16.4721L60.4219 10.0265L78.0199 3.93901L94.1813 2.86475L117.166 11.8169L121.835 15.7559L120.04 18.9787L125.427 27.5728L132.25 47.9838L135.842 73.7661L132.969 95.9675L130.455 103.845L140.511 113.872L149.13 126.763L151.644 140.012L149.13 155.052L144.102 169.017L135.124 179.76L126.504 186.206L115.012 190.861L103.16 191.577L80.1748 193.725L69.0413 193.009L57.1896 186.564L50.3659 179.76L44.9788 169.375L40.669 152.545Z" fill="white"/>
<path opacity="0.81" d="M135.777 59.1203C134.922 47.0527 132.114 34.7632 126.468 23.9847C124.119 19.4943 120.398 17.6609 115.363 18.7853C109.064 20.1962 102.836 21.5784 96.4867 22.7816C84.7355 25.0089 72.6899 29.5351 67.9995 41.4809C63.9986 51.6577 65.3562 63.1953 61.3769 73.3005C58.1805 68.9677 55.7742 64.1836 54.1581 58.9556C53.8205 57.8598 51.8237 57.3585 50.3296 57.5519C47.0471 57.3728 43.8507 58.5473 41.8107 61.3977C38.6862 65.7592 39.5841 72.1332 41.1787 76.9244C41.8969 79.0872 42.9385 81.157 44.3607 82.9474C46.1564 85.2034 49.3168 86.6142 50.3799 89.3357C51.3496 91.8137 51.5363 94.6999 52.1612 97.2852C52.8795 100.236 53.7487 103.172 54.9913 105.951C59.3154 115.648 67.8342 120.855 78.0698 122.645C83.2918 123.562 88.643 123.648 93.9368 123.547C99.8698 123.433 105.968 123.218 111.599 121.17C122.101 117.345 128.544 107.527 131.783 97.3139C135.633 85.1962 136.668 71.7751 135.77 59.1418L135.777 59.1203Z" fill="#E4BC99"/>
<path d="M132.602 74.1457C132.588 73.3006 132.566 72.4555 132.509 71.6032C132.401 69.8056 127.775 69.2685 127.747 71.0303C127.66 76.5019 127.1 81.8732 125.893 87.1228C124.687 87.1013 123.451 87.3877 123.027 87.8604C122.395 88.5694 121.785 89.2999 121.189 90.0376C119.788 89.701 118.121 89.8657 117.655 90.7896C116.189 93.7259 114.631 96.6049 112.971 99.4266C112.224 99.2977 111.427 99.2977 110.781 99.4624C111.528 93.1315 111.068 86.6501 110.292 80.226C112.052 81.2286 114.135 81.5438 116.168 80.6056C116.785 80.3191 117.288 79.9467 117.712 79.5098C119.17 79.7318 120.829 79.5886 120.793 78.3496C120.707 74.9979 119.932 71.8467 118.56 68.9964C118.502 68.8245 118.43 68.6526 118.366 68.4807C119.314 68.6096 120.312 68.538 120.772 68.359C121.641 68.0152 122.438 67.5354 123.178 66.9768C124.564 67.872 127.301 67.9722 127.79 66.7547C127.94 66.3752 128.084 65.9884 128.228 65.6017C128.127 66.0815 128.005 66.5542 127.869 67.0269C127.323 68.8603 132.523 69.598 133.22 67.6643C135.123 62.3646 134.225 56.9288 131.223 52.288C131.424 51.5503 130.67 50.9774 129.664 50.6695C129.636 49.9318 128.716 49.5307 127.689 49.3517C127.689 49.3302 127.689 49.3016 127.682 49.2801C127.553 48.6856 126.762 48.2846 126.166 48.0841C126.267 46.7735 123.602 46.2865 122.819 46.3438C117.87 46.7233 114.681 51.0132 111.987 54.8018C111.571 55.389 110.881 56.2771 110.177 57.3012C110.12 56.8859 109.782 56.4848 109.057 56.2126C108.985 56.0336 108.92 55.8474 108.827 55.6684C108.561 55.1312 108.231 54.6514 107.857 54.2217C107.922 54.0283 107.994 53.8349 108.058 53.6344C108.54 52.0373 105.638 51.7151 104.093 51.8368C103.72 51.7079 103.325 51.6291 102.915 51.5862C102.513 51.5217 102.104 51.4859 101.694 51.4787C101.429 50.0535 100.301 48.965 98.2249 48.6928C97.7293 48.6284 97.2481 48.6284 96.7668 48.6785C95.9623 48.478 95.1363 48.4135 94.4324 48.4636C91.4659 48.6928 88.8513 50.9488 86.6965 53.1689C84.951 54.5296 83.3923 56.227 82.0707 58.089C82.5304 56.4418 83.026 54.8018 83.6006 53.1761C84.046 51.8153 81.2375 50.9702 79.3843 51.4071C80.2678 48.6498 81.18 45.9069 82.0994 43.1568C82.5376 41.8462 79.8009 41.0011 77.998 41.2732C77.7897 39.8624 74.2342 39.3825 73.4872 40.6215C68.2365 49.3947 63.6395 59.2994 63.4527 69.6767C63.424 71.2452 66.2469 71.9971 67.9133 71.4958C67.626 72.7849 67.353 74.0812 67.1088 75.3775C66.7066 77.4687 71.7633 77.8698 72.654 76.4589C72.9485 75.9934 73.2214 75.5207 73.5087 75.0552C73.3651 78.0488 73.3866 81.0568 73.5877 84.0862C73.7314 86.2848 78.0052 86.6143 79.176 85.1748C79.2981 85.0244 79.3915 84.8668 79.5064 84.7164C79.7722 85.5042 80.0667 86.2848 80.3899 87.0511C79.8368 87.309 79.4992 87.7601 79.6285 88.4548C80.4905 92.9023 81.4314 97.2781 83.3995 101.353C83.7659 103.344 84.0316 105.357 84.2112 107.376C84.046 108.2 83.8951 109.031 83.7299 109.861C83.4139 109.496 83.0907 109.131 82.789 108.751C81.5104 102.248 79.1904 95.9962 75.8288 90.1522C75.1321 88.9347 70.0322 87.5668 70.1543 89.8943C70.1831 90.4315 70.2333 90.9686 70.2836 91.4986C69.0338 91.341 67.9061 91.606 67.8989 92.7376C67.8989 93.1315 67.9133 93.5182 67.9205 93.9049C66.9723 92.9739 64.5014 92.3795 63.2372 92.9453C62.598 91.914 61.93 90.9042 61.2189 89.9087C60.4359 88.8129 55.9754 88.0108 55.8676 90.0519C55.2786 101.382 59.9978 111.967 68.5454 119.379C69.472 120.181 73.4082 120.761 73.5662 118.864C73.6093 118.334 73.6452 117.811 73.6739 117.288C74.306 117.99 74.9453 118.685 75.6205 119.358C76.2598 119.995 79.2622 120.912 80.5192 120.217C82.0994 120.611 83.9813 120.604 83.9382 119.193C83.9023 118.026 83.8377 116.865 83.7443 115.712C84.1896 116.056 84.635 116.393 85.1019 116.715C85.4754 116.973 86.3661 117.267 87.2926 117.388C87.2855 117.438 87.2783 117.496 87.2639 117.546C86.955 119.616 92.0261 120.174 92.8665 118.634C93.1036 118.205 93.3262 117.761 93.5561 117.324C93.8578 117.345 94.1235 117.345 94.3247 117.31C95.0932 117.711 96.0629 117.961 96.6806 117.94C100.401 117.825 104.467 117.281 108.432 116.221C109.732 116.959 111.772 117.123 112.684 116.235C113.445 115.498 114.178 114.738 114.889 113.972C120.714 111.387 125.671 107.441 128.041 101.833C133.184 94.7787 134.994 85.0315 136.115 76.1438C136.273 74.8762 134.254 74.1027 132.581 74.1313L132.602 74.1457ZM90.0868 81.9663C89.0381 85.5615 87.9606 89.1495 86.8401 92.7304C86.5815 91.9498 86.3158 91.1763 86.0285 90.4028C86.6031 90.1808 86.9335 89.7511 86.7324 89.0493C85.2024 83.5848 84.0101 78.3926 83.6797 73.0786C85.5831 73.4725 87.58 72.8924 89.3398 72.0258C89.3757 72.0401 89.4116 72.0544 89.4475 72.0688C90.647 72.434 91.7891 72.3481 92.8665 71.9828C91.8968 75.2987 90.9703 78.6218 90.0796 81.9591L90.0868 81.9663ZM116.038 63.9831C116.29 63.8256 116.534 63.6537 116.778 63.489C116.685 63.9115 116.606 64.3269 116.52 64.7351C116.362 64.4845 116.196 64.2338 116.031 63.9831H116.038ZM100.559 65.6232C101.335 64.8282 102.082 64.019 102.779 63.181C102.506 63.7253 102.197 64.2481 101.859 64.7638C101.565 65.2293 101.249 65.6805 100.904 66.1173C100.545 66.7476 100.452 66.7118 100.631 66.0099C100.588 65.9025 100.567 65.7664 100.559 65.6232ZM101.709 81.0066C102.441 78.7363 103.195 76.4804 104 74.2316C104.646 72.4197 99.0869 71.4385 98.3255 73.5512C97.8586 74.8332 97.3774 76.1151 96.9105 77.3971C96.9679 77.1822 97.0254 76.9602 97.0829 76.7454C97.5785 74.9621 98.0813 73.1788 98.5697 71.3956C98.8068 70.5361 97.7724 69.9059 96.5442 69.6839C96.616 69.6194 96.695 69.555 96.7668 69.4834C98.6559 70.9229 101.651 71.1162 103.921 69.7985C104.036 69.734 104.144 69.6553 104.251 69.5836C104.187 71.0088 104.223 72.4483 104.438 73.7876C104.05 74.0526 103.835 74.4679 103.914 75.0767C104.201 77.1608 104.481 79.2663 104.718 81.3862C103.863 80.9923 102.664 80.8491 101.694 80.9995L101.709 81.0066ZM104.927 87.0296C105.013 86.6716 105.092 86.3063 105.171 85.9482C105.2 86.3063 105.221 86.6644 105.243 87.0225C105.135 87.0225 105.027 87.0225 104.927 87.0296Z" fill="#E4BC99"/>
<path d="M60.1125 80.1329C62.4541 76.8098 58.6974 71.6247 56.3127 69.6338C56.1188 69.4691 55.7094 69.3043 55.2138 69.1683C53.7269 67.4208 51.8665 66.2033 49.5393 65.9311C48.7851 65.8452 46.6805 65.9097 46.6446 67.077C46.5512 70.4645 47.5568 73.4653 49.8482 75.9862C50.0708 76.2297 50.5952 76.4303 51.2129 76.5663C50.4228 77.0963 50.1642 77.8984 51.1554 78.5645C51.6367 78.8867 52.2329 79.3236 52.9009 79.7533C53.3893 81.4363 53.9855 83.0979 54.6966 84.7451C55.3215 86.1774 60.4572 87.1657 60.3495 85.0029C60.2849 83.678 60.1125 82.1239 59.8252 80.491C59.9257 80.3836 60.0191 80.2618 60.1125 80.1329Z" fill="#E4BC99"/>
<path d="M125.671 45.1334C124.679 40.4568 123.688 35.773 122.697 31.0964C122.539 30.28 122.366 29.4564 122.18 28.6399C121.734 26.6991 116.34 26.3768 116.319 28.5039C115.22 28.3893 114.121 28.5468 113.618 29.0338C112.081 27.9381 108.281 27.8521 108.36 29.5566C108.36 29.6068 108.36 29.6569 108.36 29.707C106.844 28.5683 102.944 28.2604 103.037 30.0938L103.181 32.7579C102.003 31.4115 98.1459 31.032 97.6934 32.715L97.3486 31.9988C96.6447 30.5235 92.5073 29.8001 91.746 31.3184C90.2519 30.0078 85.9278 30.1511 86.5959 32.0776C86.9909 33.202 87.3357 34.3335 87.6374 35.4651C87.1274 34.6057 86.5815 33.7749 85.9566 32.9871C85.0803 31.8914 80.1887 31.2325 80.8208 33.5314C81.0579 34.398 81.2734 35.2646 81.4817 36.1383C81.022 36.3245 80.7275 36.6181 80.7706 37.0335C81.065 39.9555 81.7833 42.5767 83.1409 45.1907C83.6652 46.2005 87.1489 47.1244 88.1402 46.1862C88.5783 46.7592 89.0524 47.3035 89.5839 47.8263C90.2735 48.5066 93.6638 49.5093 94.6191 48.4207C94.7268 48.5926 94.8346 48.7644 94.9423 48.9292C95.6319 49.9819 98.7205 50.4761 99.9057 49.5666C100.157 50.0894 100.401 50.6193 100.653 51.1422C101.472 52.861 106.83 53.5843 106.399 50.9703C106.363 50.7483 106.327 50.5262 106.291 50.2971C107.994 50.7339 110.012 50.5835 109.94 49.2156C109.933 49.0652 109.926 48.9077 109.919 48.7573C111.132 49.5451 113.488 49.8602 114.544 49.2156C114.573 49.2873 114.602 49.366 114.631 49.4377C115.255 50.9703 120.6 51.9371 120.513 49.7098C120.499 49.2658 120.47 48.8289 120.456 48.3849C122.094 48.7573 123.99 48.5138 124.026 47.2103C124.026 47.0743 124.026 46.9454 124.026 46.8093C125.082 46.6231 125.872 46.086 125.671 45.1191V45.1334Z" fill="#E4BC99"/>
<path d="M131.582 52.8323C131.51 51.271 128.429 50.5047 126.963 51.2352C127.279 49.366 122.955 48.9435 122.007 49.896C121.921 49.9819 121.849 50.075 121.763 50.161C120.7 50.075 119.587 50.2326 119.17 50.5334C118.552 50.9774 118.014 51.4644 117.518 51.98C116.318 51.6721 114.774 51.7723 114.393 52.4957C113.589 54.0211 112.835 55.5681 112.088 57.1222C111.966 57.38 111.757 57.7238 111.542 58.1033C111.226 57.7667 110.673 57.5304 110.041 57.3872C109.983 57.0434 109.897 56.7068 109.782 56.3702C109.337 55.1169 106.866 54.5726 105.494 55.0954C104.876 54.7516 103.964 54.6012 103.116 54.6084C103.432 53.8707 103.705 53.1259 103.906 52.3668C104.323 50.8055 101.17 50.3113 99.6326 50.7124C99.7332 50.4689 99.8409 50.2326 99.9271 49.9747C100.566 48.0912 95.8544 47.9193 94.971 48.6283C93.362 49.9103 91.7746 51.2137 90.1944 52.5315C89.4402 52.3095 88.5998 52.245 88.0898 52.467C82.3076 55.0095 78.2134 59.4139 76.1519 65.3725C75.5341 67.1486 80.1527 67.4995 81.0147 66.6903C81.3307 66.3966 81.6468 66.1102 81.9556 65.8237C81.8048 66.1173 81.6468 66.411 81.5031 66.7046C80.519 68.6884 84.7641 69.247 85.8703 68.6812C86.8543 68.1799 87.8096 67.5926 88.7434 66.9624C88.8583 67.9436 91.006 68.5666 92.5862 68.359C92.7155 69.4619 95.955 70.2425 97.4419 69.4905C97.2838 70.0849 97.2264 70.7152 97.3198 71.3812C97.5712 73.2862 101.622 73.0356 102.549 72.0043C104.072 70.3213 106.169 67.9006 107.778 65.2794C108.899 65.2937 109.969 64.9571 110.227 64.112C110.472 63.3099 110.716 62.5078 110.96 61.7057C111.434 62.3216 112.267 62.6654 113.122 62.8229C113.259 63.9115 113.891 64.7996 115.492 65.2651C116.232 65.4799 116.936 65.5301 117.604 65.4584C117.963 65.8953 118.459 66.2677 119.17 66.5184C120.801 67.1056 122.251 66.9767 123.53 66.3608C123.552 66.3752 123.566 66.3895 123.587 66.3966C130.799 70.6794 131.79 56.6925 131.604 52.8108L131.582 52.8323Z" fill="#D1A482"/>
<path d="M58.8486 73.7231C57.7856 71.2953 55.918 69.3759 53.4112 68.452C52.9228 68.273 51.0049 67.8934 49.9634 68.2658C48.5628 68.3088 47.1477 68.8459 48.1031 69.7483C48.4263 70.0491 48.728 70.3714 49.0296 70.6865C48.7639 70.93 48.613 71.2594 48.7064 71.6892C49.4032 74.8045 50.6673 78.1634 52.7647 80.6413C54.1941 82.3315 57.843 83.7567 59.6675 81.8517C61.1974 80.2474 59.6172 75.4706 58.8486 73.7231Z" fill="#D1A482"/>
<path d="M125.879 88.9203C123.954 87.3161 121.72 86.7073 119.379 86.7073C121.081 85.6903 122.711 84.5588 124.126 83.1336C124.126 83.1336 124.134 83.1336 124.141 83.1264C124.249 83.0119 124.363 82.9116 124.471 82.797C125.383 81.823 124.162 81.2143 122.683 80.9493C122.754 80.8991 122.826 80.849 122.905 80.7989C125.247 79.1803 119.881 77.9628 118.711 78.4212C115.011 79.8535 111.291 81.6082 107.512 82.8973C106.78 82.8328 106.033 82.9617 105.516 83.327L105.257 83.5132C104.517 84.0288 104.927 84.7307 105.451 85.1819C106.076 85.719 106.78 85.9697 107.505 86.0341C107.017 86.3707 106.521 86.7073 106.033 87.0439C105.71 87.2659 105.394 87.7959 105.602 88.197C105.896 88.7627 106.299 89.2068 106.787 89.5362C105.58 90.3741 104.438 91.3052 103.425 92.4296C101.895 94.1269 107.017 94.929 107.943 94.4778C108.425 94.2415 109.057 93.9049 109.782 93.5181C110.637 93.6685 111.47 93.6829 111.865 93.511C112.785 93.1171 113.639 92.716 114.473 92.1932C117.698 91.2192 121.857 92.1073 125.046 91.2694C126.382 90.9184 127.186 89.9946 125.908 88.9346L125.879 88.9203Z" fill="#D1A482"/>
<path d="M93.1251 117.832C92.0476 115.469 91.2144 113.127 90.7116 110.577C90.5105 109.546 88.4347 108.98 86.955 109.188C86.9478 109.116 86.9335 109.038 86.9263 108.966C86.7611 107.734 83.9167 107.176 82.4873 107.756C82.3508 107.383 82.2071 107.011 82.0419 106.646C81.5966 105.686 78.9389 104.891 77.5814 105.371C77.3946 105.077 77.2007 104.791 76.978 104.519C76.7338 104.203 76.1951 103.917 75.563 103.724C75.2613 102.506 74.7513 101.389 73.9037 100.637C73.1926 99.9995 72.0218 99.577 70.8798 99.5125C70.5422 98.0157 70.0035 96.5332 69.2564 95.1009C68.8973 94.4134 67.8989 93.8834 66.8574 93.6972C66.7927 92.4439 66.6562 91.3123 66.4767 90.4672C66.2612 89.4431 64.3434 89.0421 63.4742 89.0779C63.4455 88.2686 61.4487 87.2803 60.2276 87.4736C53.9354 88.4763 54.2443 100.787 58.9706 103.631C59.3656 103.867 59.7391 104.053 60.0983 104.211C60.7376 107.491 61.9802 110.427 65.2556 112.167C65.6004 112.346 66.1965 112.504 66.8358 112.561C66.9507 112.712 67.0657 112.869 67.1878 113.012C67.9707 113.943 69.0697 114.609 70.2477 114.903C70.7074 115.641 71.203 116.357 71.7489 117.052C72.6683 118.241 75.0602 118.448 76.31 117.567C76.4106 117.675 76.5111 117.782 76.6189 117.882C77.5742 118.806 80.6413 119.666 81.5104 118.119C81.5248 118.09 81.5391 118.069 81.5535 118.04C81.8552 118.198 82.1712 118.334 82.5088 118.427C84.4051 118.964 85.5974 118.577 86.3157 117.689C86.7682 117.904 87.5153 118.112 88.2695 118.183C89.4115 119.479 93.9583 119.666 93.1251 117.847V117.832Z" fill="#D1A482"/>
<g opacity="0.96">
<path d="M96.8172 188.139C95.8546 187.788 94.885 187.437 93.9225 187.094C93.3909 186.9 92.1339 186.872 91.0637 187.051C88.995 182.847 86.2583 179.065 82.8249 175.785C82.6885 175.656 82.4945 175.535 82.2575 175.434C81.8768 174.79 81.5033 174.145 81.137 173.501C81.0723 173.386 80.9646 173.279 80.8353 173.171C80.2104 167.807 78.9246 162.572 76.9494 157.487C76.7626 157.014 76.1233 156.599 75.3404 156.327C75.9222 152.345 76.2383 148.363 76.2885 144.374C76.9637 137.971 77.8903 131.604 79.3987 125.323C79.5927 124.392 78.544 123.719 77.287 123.454C77.2798 123.268 77.2654 123.089 77.2367 122.91C78.3716 122.251 78.4578 120.926 76.2454 120.274C75.8935 120.174 75.5559 120.045 75.2111 119.938C74.6437 119.623 74.0044 119.429 73.3364 119.286C71.2318 118.491 69.1991 117.546 67.231 116.393C67.0011 116.257 66.7641 116.128 66.527 115.999C66.053 115.741 65.2485 115.691 64.444 115.784L63.8909 114.438C63.7114 114.008 63.1583 113.636 62.4544 113.356L59.2077 107.519C58.8414 106.861 57.6634 106.359 56.4567 106.166C56.2986 105.736 56.1334 105.306 55.9754 104.877C55.803 104.397 55.3002 104.017 54.6681 103.752C54.9698 103.108 55.2715 102.456 55.5875 101.819C56.6362 99.6773 51.1198 98.56 50.2291 100.35C49.6401 101.532 49.0727 102.728 48.5268 103.931C48.1605 104.146 47.9234 104.454 47.9091 104.898C47.9091 105.049 47.9019 105.199 47.8947 105.349C47.8372 105.485 47.7798 105.622 47.7223 105.758C47.4206 105.965 47.198 106.223 47.1046 106.567C46.9394 107.183 46.7885 107.799 46.6233 108.415C44.4182 113.986 42.723 119.723 41.5594 125.596C40.6544 125.682 39.9648 126.047 40.0007 126.835C40.0941 128.833 40.2234 130.831 40.3958 132.815C40.324 133.416 40.2521 134.025 40.1947 134.627C39.8283 134.82 39.5985 135.142 39.62 135.658C40.1731 148.212 42.9888 160.438 48.0599 171.939C48.1892 172.24 48.4693 172.512 48.8428 172.749C49.1445 173.622 49.4534 174.496 49.7694 175.363C50.0424 176.1 51.0623 176.637 52.1685 176.845C52.9586 178.972 53.8277 181.078 54.7902 183.155C55.0416 183.699 55.6809 184.136 56.4495 184.415C59.3083 187.788 63.1152 190.008 67.3171 191.033C67.3818 191.061 67.4464 191.09 67.5111 191.118C67.7625 191.226 68.2797 191.319 68.8758 191.348C69.7881 191.505 70.7218 191.605 71.6556 191.648C72.3021 191.885 72.9557 192.078 73.6237 192.236C74.2558 192.601 74.9813 192.859 75.3117 192.887C75.9222 192.938 76.5256 192.973 77.1289 193.002C77.6174 193.16 78.0771 193.274 78.4649 193.36C81.4315 194.012 84.3908 193.632 87.0413 192.286C87.7955 192.143 88.5569 191.978 89.3111 191.792C90.5537 192.4 91.9903 192.816 93.6854 192.966C94.4684 193.038 96.7741 193.002 96.7741 191.742C96.7741 191.441 96.7525 191.161 96.7238 190.896C97.0614 190.811 97.363 190.66 97.5857 190.417C98.3902 189.529 97.9449 188.555 96.8028 188.139H96.8172Z" fill="#036AAF"/>
<path d="M150.409 145.462C150.495 144.782 149.992 144.245 149.252 143.894C149.489 141.738 149.446 139.532 149.015 137.269C148.943 136.89 148.663 136.575 148.268 136.324C148.843 130.888 143.937 121.879 142.206 118.921C140.992 116.844 139.692 114.824 138.349 112.826C137.25 111.186 136.287 109.095 134.513 108.092C134.247 107.942 133.859 107.827 133.414 107.756C133.342 107.663 133.263 107.57 133.191 107.469C132.279 106.323 128.436 105.493 127.61 107.197C126.957 108.543 126.31 109.897 125.657 111.243C125.305 111.516 125.017 111.838 124.809 112.217C124.012 112.511 123.602 113.077 124.184 113.951C130.232 123.068 132.43 133.839 133.148 144.603C133.73 153.333 134.01 162.357 133.148 171.159C132.157 173.873 131.209 176.609 130.333 179.366C129.679 181.421 134.649 181.751 135.95 180.648C137.07 180.584 138.047 180.154 138.212 179.266C138.349 178.514 138.478 177.762 138.6 177.01C144.957 167.563 149.001 156.799 150.423 145.455L150.409 145.462Z" fill="#036AAF"/>
<path d="M71.9428 185.489C67.5325 184.222 65.4566 177.719 63.8189 174.009C63.0576 172.283 62.4111 170.571 61.8508 168.838C63.3736 169.01 64.9323 168.659 64.8676 167.592C64.0847 155.503 63.309 143.944 65.5787 131.919C65.9379 130.007 60.6872 129.284 60.2778 131.282C58.597 139.468 57.4406 148.22 57.7925 156.771C57.5914 156.713 57.3903 156.663 57.182 156.635C56.32 151.292 55.8316 146.007 56.0327 140.478C56.2913 133.588 57.2107 126.741 58.1732 119.916C58.4677 117.832 53.1524 117.224 52.6065 119.25C51.8595 122.029 51.0622 124.793 50.2362 127.544C51.1268 121.291 52.6496 115.132 54.8045 109.102C55.3791 107.491 50.3439 106.553 49.7405 108.114C44.9208 120.539 42.8522 133.667 43.7644 146.973C43.9224 149.237 48.7924 149.738 49.5466 147.668C49.7405 147.138 49.9129 146.601 50.0997 146.071C50.2362 151.464 51.0047 156.771 52.8364 161.762C53.0518 162.35 53.7917 162.772 54.6464 163.001C55.3934 168.315 57.6489 173.493 59.9115 178.256C62.2962 183.276 65.0831 187.287 70.8438 188.368C73.4512 188.855 75.0458 186.37 71.9428 185.482V185.489Z" fill="#1D83BC"/>
<path d="M75.4264 179.746C75.2827 179.459 74.9882 179.208 74.6075 178.994C69.7519 165.658 69.443 151.342 73.0776 137.534C73.5732 135.644 68.3872 134.97 67.7192 136.89C62.4326 152.073 63.6177 168.824 70.0751 183.463C70.7862 185.067 76.3529 186.22 76.3889 183.749C76.4104 182.173 76.1662 181.164 75.4264 179.738V179.746Z" fill="#1D83BC"/>
<path d="M152.571 149.344C152.7 148.563 151.903 147.99 150.897 147.711C151.788 140.206 151.055 132.507 149.791 125.094C149.468 123.197 144.454 122.867 144.009 124.829C143.973 124.973 143.951 125.116 143.915 125.259C143.154 122.831 142.184 120.525 140.834 118.477C140.008 117.224 134.994 117.173 135.892 119C137.487 122.237 138.449 125.782 139.189 129.384C137.645 125.152 135.238 121.406 134.714 116.837C134.491 114.925 130.11 114.244 129.564 116.221C128.4 120.425 131.482 124.693 132.889 128.503C134.613 133.173 135.109 137.885 135.827 142.777C136.057 144.345 140.151 144.925 141.322 143.729C141.882 147.99 142.119 152.288 141.882 156.585C141.746 159.156 141.818 163.252 140.884 166.353C140.791 166.525 140.697 166.697 140.597 166.862C140.46 167.098 140.424 167.313 140.46 167.521C140.159 168.215 139.785 168.824 139.318 169.318C137.86 170.851 143.096 172.169 144.31 171.109C145.862 169.748 146.659 167.678 147.083 165.444C149.819 160.416 151.63 155.045 152.563 149.344H152.571Z" fill="#1D83BC"/>
<path opacity="0.53" d="M67.9636 130.129C67.4464 132.041 67.0155 133.982 66.6419 135.944C67.5111 129.298 68.5885 122.674 70.0035 116.049C70.4273 114.058 65.1623 113.428 64.5374 115.397C64.1208 116.715 63.697 118.026 63.2732 119.343C63.3522 118.813 63.424 118.276 63.5102 117.746C63.8334 115.741 58.3745 115.018 58.0297 117.087C56.7224 124.894 56.1909 132.757 56.4351 140.671C56.471 141.932 58.1303 142.641 59.6458 142.619C58.9419 148.578 58.4966 154.558 58.4104 160.516C58.3817 162.364 62.3753 163.102 63.7185 161.999C63.424 166.668 63.3378 171.366 63.8047 175.928C64.0202 178.034 69.4289 178.858 69.5869 176.623C70.14 168.974 69.8383 161.283 70.456 153.62C71.0738 145.949 72.417 138.401 73.2574 130.759C73.48 128.747 68.4736 128.195 67.9564 130.122L67.9636 130.129Z" fill="#1D83BC"/>
<path opacity="0.53" d="M64.1856 180.276C60.8097 174.482 57.6708 168.831 55.8104 162.343C53.8782 155.603 53.3395 148.807 53.4904 141.831C53.5335 139.862 48.5414 139.246 48.2756 141.208C46.4727 154.615 50.215 170.199 58.7123 180.856C59.7035 182.102 65.3133 182.216 64.1856 180.276Z" fill="#1D83BC"/>
<path opacity="0.53" d="M141.308 146.429C140.819 140.449 139.713 134.476 137.766 128.797C137.185 127.1 132.142 126.77 132.645 128.947C134.024 134.935 135.123 140.907 135.396 147.059C135.655 152.939 134.714 158.69 134.685 164.541C134.678 166.711 139.634 167.213 140.259 165.207C142.076 159.342 141.803 152.495 141.308 146.436V146.429Z" fill="#1D83BC"/>
</g>
<path opacity="0.67" d="M119.874 154.343C118.258 150.425 116.642 146.515 115.019 142.598C115.019 142.54 115.019 142.476 115.004 142.419C114.976 142.06 114.81 141.76 114.566 141.516C114.401 141.115 114.236 140.721 114.071 140.32C114.667 140.191 115.162 139.883 115.335 139.289C115.543 138.565 115.716 137.842 115.866 137.119C116.664 136.947 117.231 136.496 117.102 135.708C116.269 130.68 114.746 125.502 110.774 122.709C110.767 122.652 110.759 122.602 110.752 122.545C110.601 121.599 109.028 121.098 107.685 121.198C107.283 121.077 106.866 120.969 106.421 120.883C105.322 120.668 103.577 120.511 103.102 121.814C102.363 123.834 102.147 125.631 102.377 127.758C102.377 127.773 102.384 127.787 102.391 127.801C102.298 128.224 102.205 128.675 102.111 129.141C101.924 129.248 101.781 129.384 101.695 129.542C99.9132 132.822 99.4607 136.159 100.287 139.797C100.545 140.95 102.47 141.323 103.842 141.022C104.28 141.28 104.79 141.437 105.387 141.502C105.106 142.576 104.848 143.658 104.596 144.739C104.596 144.746 104.596 144.753 104.596 144.76C104.596 144.76 104.596 144.768 104.596 144.775C103.16 150.962 102.169 157.222 101.623 163.553C101.479 164.212 101.343 164.863 101.192 165.522C101.106 165.909 101.278 166.238 101.594 166.503C101.924 167.055 102.722 167.42 103.577 167.563C104.007 171.144 106.062 175.133 108.145 176.308C112.39 178.707 115.385 174.876 114.81 171.495C116.355 170.901 117.267 169.554 117.784 167.914C118.589 167.764 119.336 167.413 119.824 166.826C120.844 165.587 120.923 163.567 120.686 161.612C122.137 159.435 120.88 156.749 119.889 154.35L119.874 154.343Z" fill="#00B0CC"/>
<path d="M113.618 148.47C114.415 146.802 115.09 145.09 115.629 143.292C115.909 142.368 114.904 141.853 113.718 141.702C113.826 140.707 113.927 139.711 114.02 138.716C114.085 137.978 113.374 137.441 112.469 137.155C113.216 135.457 113.762 133.674 114.193 132.285C114.738 130.523 109.919 129.95 109.136 131.304C109.093 131.375 109.057 131.447 109.021 131.518C109.236 130.988 109.466 130.458 109.718 129.936C110.587 128.117 105.983 127.214 105.207 128.697C103.49 131.977 99.2163 140.872 104.855 142.476C105.013 142.519 105.164 142.555 105.315 142.583C105.257 143.034 105.207 143.486 105.171 143.944C105.07 145.204 106.6 145.706 108.03 145.663C108.015 145.777 107.994 145.899 107.979 146.014C106.974 147.439 106.011 148.893 105.092 150.382C104.115 151.972 102.585 153.612 104.323 155.102C105.25 155.897 106.356 156.126 107.527 155.997C105.35 159.062 103.382 162.249 101.867 165.737C100.911 167.936 105.602 168.179 106.701 167.062C109.272 164.441 111.923 161.906 114.588 159.385C114.746 159.306 114.889 159.22 114.997 159.105C115.349 158.733 115.701 158.353 116.053 157.981C116.965 157.007 114.947 156.126 113.266 156.019C114.71 154.056 116.225 152.144 117.762 150.239C119.041 148.649 115.076 148.126 113.618 148.485V148.47Z" fill="#00B0CC"/>
<path d="M121.16 159.757C121.189 159.671 121.218 159.585 121.246 159.499C121.742 158.01 117.325 157.279 116.721 158.618C114.897 162.686 113.582 166.962 112.591 171.302C112.131 173.321 116.7 173.278 117.576 172.276C120.284 169.175 122.36 165.751 123.861 161.92C124.349 160.674 122.683 159.85 121.16 159.764V159.757Z" fill="#00B0CC"/>
<path d="M104.065 131.461C104.065 131.375 104.043 131.332 104 131.261C103.928 131.146 103.778 131.074 103.648 131.046C103.469 131.003 103.268 131.003 103.095 131.074C102.916 131.146 102.75 131.304 102.758 131.511C102.758 131.611 102.793 131.697 102.829 131.776C102.829 131.776 102.829 131.776 102.829 131.783C102.829 131.783 102.837 131.791 102.844 131.798C102.916 131.927 103.023 132.041 103.138 132.141C103.189 132.184 103.26 132.206 103.325 132.227C103.418 132.256 103.512 132.256 103.612 132.249C103.727 132.235 103.878 132.192 103.907 132.063C103.921 132.005 103.936 131.948 103.943 131.891L103.964 131.805C103.964 131.805 103.964 131.783 103.971 131.769C103.971 131.755 103.971 131.74 103.971 131.733C104.015 131.683 104.043 131.626 104.065 131.554C104.072 131.526 104.079 131.49 104.072 131.454L104.065 131.461Z" fill="#C42122"/>
<path d="M109.797 129.098C109.768 129.048 109.739 129.012 109.704 128.976C109.689 128.954 109.668 128.933 109.646 128.919C109.646 128.904 109.646 128.897 109.632 128.89C109.617 128.861 109.596 128.833 109.581 128.804C109.581 128.804 109.574 128.797 109.567 128.79C109.517 128.732 109.459 128.697 109.395 128.668C109.337 128.639 109.273 128.618 109.201 128.611C109.129 128.596 109.064 128.589 108.992 128.589C108.906 128.589 108.827 128.603 108.755 128.632C108.705 128.646 108.655 128.682 108.612 128.704C108.59 128.718 108.569 128.732 108.554 128.747C108.504 128.797 108.447 128.847 108.418 128.919C108.389 128.976 108.36 129.048 108.36 129.112C108.36 129.155 108.36 129.205 108.375 129.248C108.375 129.27 108.389 129.291 108.396 129.313C108.418 129.355 108.439 129.398 108.475 129.434C108.54 129.506 108.612 129.549 108.698 129.599C108.892 129.692 109.115 129.714 109.323 129.678C109.495 129.656 109.668 129.563 109.768 129.42C109.797 129.384 109.811 129.334 109.826 129.291C109.826 129.277 109.833 129.255 109.833 129.241C109.833 129.198 109.833 129.148 109.811 129.112L109.797 129.098Z" fill="#C42122"/>
<path d="M113.001 134.154C112.986 134.111 112.972 134.075 112.95 134.039C112.914 133.982 112.878 133.91 112.828 133.867C112.771 133.817 112.713 133.767 112.641 133.739C112.534 133.688 112.412 133.667 112.289 133.66C112.261 133.66 112.232 133.667 112.203 133.667C112.189 133.667 112.182 133.667 112.167 133.667C112.139 133.667 112.11 133.681 112.081 133.681C112.06 133.681 112.038 133.681 112.016 133.681C112.009 133.681 112.002 133.688 111.988 133.688C111.973 133.688 111.952 133.688 111.937 133.696C111.808 133.76 111.7 133.832 111.614 133.953C111.55 134.039 111.514 134.147 111.492 134.247C111.471 134.347 111.485 134.462 111.506 134.562C111.535 134.662 111.593 134.77 111.672 134.841C111.779 134.949 111.902 134.999 112.052 135.028C112.203 135.056 112.368 135.063 112.519 134.999C112.656 134.942 112.763 134.863 112.864 134.748C112.936 134.662 112.979 134.562 113.001 134.455C113.029 134.354 113.029 134.24 113.001 134.14V134.154Z" fill="#C42122"/>
<path d="M108.885 137.112C108.878 137.069 108.856 137.026 108.842 136.976C108.806 136.868 108.684 136.811 108.59 136.775C108.533 136.754 108.475 136.739 108.411 136.732C108.332 136.725 108.253 136.725 108.167 136.732C108.109 136.746 108.044 136.761 107.987 136.782C107.973 136.782 107.958 136.797 107.944 136.804C107.908 136.825 107.865 136.839 107.829 136.868C107.764 136.918 107.707 136.983 107.664 137.047C107.621 137.112 107.599 137.183 107.599 137.262C107.599 137.291 107.599 137.319 107.599 137.348C107.599 137.384 107.599 137.412 107.613 137.448C107.613 137.484 107.642 137.52 107.664 137.548C107.757 137.656 107.908 137.699 108.037 137.713C108.116 137.72 108.195 137.72 108.267 137.713C108.274 137.713 108.281 137.713 108.289 137.706C108.361 137.728 108.44 137.742 108.504 137.735C108.562 137.735 108.619 137.72 108.677 137.699C108.72 137.685 108.756 137.656 108.784 137.62C108.806 137.599 108.82 137.577 108.827 137.556C108.842 137.52 108.856 137.477 108.87 137.434C108.885 137.391 108.892 137.341 108.892 137.298C108.892 137.233 108.892 137.169 108.87 137.104L108.885 137.112Z" fill="#C42122"/>
<path d="M109.66 145.541C109.66 145.541 109.625 145.505 109.61 145.484C109.617 145.462 109.625 145.441 109.632 145.419C109.632 145.405 109.632 145.391 109.632 145.376C109.632 145.34 109.632 145.298 109.617 145.262C109.61 145.219 109.581 145.183 109.56 145.147C109.553 145.133 109.538 145.118 109.531 145.104C109.495 145.068 109.459 145.04 109.423 145.011C109.337 144.961 109.273 144.932 109.179 144.896C109.172 144.896 109.165 144.896 109.151 144.889C109.1 144.875 109.05 144.868 109 144.861C108.971 144.861 108.942 144.861 108.913 144.861C108.878 144.853 108.834 144.846 108.813 144.853C108.799 144.853 108.791 144.861 108.777 144.868C108.748 144.868 108.712 144.868 108.684 144.868C108.641 144.875 108.597 144.889 108.554 144.904C108.547 144.904 108.533 144.911 108.526 144.918C108.482 144.939 108.432 144.961 108.396 144.997C108.36 145.025 108.324 145.061 108.296 145.104C108.274 145.14 108.26 145.183 108.245 145.226C108.245 145.247 108.238 145.262 108.238 145.283C108.238 145.326 108.238 145.376 108.253 145.419C108.253 145.441 108.274 145.455 108.281 145.477C108.281 145.491 108.281 145.512 108.296 145.534C108.317 145.577 108.339 145.62 108.375 145.656C108.454 145.727 108.504 145.763 108.605 145.813C108.648 145.835 108.72 145.856 108.755 145.87C108.806 145.885 108.87 145.899 108.928 145.906C109.093 145.928 109.265 145.913 109.423 145.856C109.474 145.842 109.517 145.813 109.56 145.785C109.589 145.763 109.61 145.734 109.639 145.713C109.682 145.67 109.682 145.613 109.668 145.548L109.66 145.541Z" fill="#C42122"/>
<path d="M114.904 151.543C114.904 151.543 114.897 151.5 114.889 151.478C114.875 151.435 114.846 151.399 114.825 151.356C114.81 151.335 114.803 151.321 114.789 151.306C114.71 151.227 114.624 151.163 114.523 151.12C114.415 151.077 114.358 151.063 114.243 151.041C114.193 151.041 114.135 151.034 114.085 151.034C113.984 151.034 113.898 151.056 113.812 151.084C113.726 151.113 113.661 151.163 113.604 151.235C113.597 151.242 113.589 151.256 113.582 151.263C113.568 151.299 113.553 151.335 113.539 151.371C113.539 151.399 113.539 151.421 113.539 151.45C113.539 151.485 113.539 151.535 113.561 151.571C113.575 151.614 113.597 151.65 113.625 151.679C113.654 151.714 113.69 151.75 113.733 151.772C113.733 151.772 113.733 151.779 113.74 151.786C113.769 151.822 113.805 151.851 113.848 151.865C113.877 151.886 113.913 151.901 113.941 151.908C113.999 151.929 114.056 151.944 114.114 151.951C114.157 151.951 114.2 151.965 114.243 151.972C114.286 151.972 114.329 151.972 114.372 151.972C114.415 151.972 114.458 151.972 114.502 151.972C114.559 151.972 114.616 151.965 114.674 151.944C114.71 151.944 114.739 151.922 114.767 151.908C114.81 151.894 114.839 151.865 114.868 151.829C114.897 151.772 114.925 151.707 114.925 151.643C114.925 151.6 114.925 151.557 114.911 151.514L114.904 151.543Z" fill="#C42122"/>
<path d="M108.849 156.183C108.791 156.004 108.633 155.89 108.475 155.804C108.461 155.797 108.439 155.79 108.425 155.782C108.368 155.761 108.303 155.732 108.238 155.718C108.174 155.704 108.102 155.689 108.037 155.682C107.965 155.682 107.901 155.668 107.829 155.675C107.7 155.682 107.577 155.704 107.455 155.747C107.384 155.775 107.312 155.811 107.254 155.868C107.218 155.904 107.175 155.94 107.147 155.99C107.118 156.033 107.103 156.083 107.089 156.126C107.082 156.148 107.075 156.176 107.067 156.198C107.06 156.269 107.089 156.334 107.139 156.384C107.154 156.42 107.161 156.463 107.182 156.499C107.269 156.649 107.369 156.764 107.549 156.806C107.592 156.821 107.642 156.828 107.685 156.835C107.8 156.878 107.922 156.9 108.044 156.907C108.195 156.907 108.339 156.9 108.475 156.842C108.526 156.821 108.569 156.792 108.619 156.771C108.633 156.756 108.655 156.749 108.669 156.735C108.72 156.692 108.777 156.635 108.806 156.577C108.834 156.52 108.863 156.456 108.87 156.391C108.87 156.37 108.87 156.348 108.87 156.334C108.87 156.291 108.863 156.241 108.849 156.191V156.183Z" fill="#C42122"/>
<path d="M116.305 159.019C116.276 158.969 116.24 158.905 116.197 158.862C116.104 158.769 115.996 158.704 115.866 158.669C115.866 158.669 115.866 158.669 115.874 158.661C115.874 158.654 115.888 158.647 115.895 158.64C115.924 158.611 115.945 158.583 115.931 158.532C115.917 158.49 115.859 158.454 115.823 158.432C115.708 158.382 115.579 158.375 115.464 158.439C115.371 158.49 115.292 158.568 115.22 158.647C115.184 158.69 115.155 158.74 115.119 158.79C115.04 158.848 114.969 158.919 114.933 159.005C114.897 159.098 114.854 159.191 114.882 159.292C114.89 159.313 114.904 159.335 114.918 159.363C114.94 159.406 114.976 159.471 115.012 159.506C115.012 159.506 115.026 159.521 115.033 159.521C115.076 159.571 115.134 159.614 115.184 159.635C115.198 159.643 115.22 159.635 115.242 159.65C115.242 159.65 115.256 159.65 115.256 159.657C115.335 159.686 115.414 159.7 115.5 159.707C115.579 159.714 115.658 159.707 115.737 159.7C115.816 159.693 115.895 159.693 115.967 159.664C116.089 159.621 116.226 159.528 116.283 159.399C116.333 159.277 116.348 159.148 116.283 159.027L116.305 159.019Z" fill="#C42122"/>
<path d="M112.246 165.959C112.246 165.909 112.225 165.859 112.196 165.809C112.131 165.694 112.067 165.615 111.959 165.537C111.851 165.465 111.758 165.422 111.629 165.386C111.593 165.372 111.55 165.372 111.506 165.358C111.463 165.35 111.42 165.336 111.377 165.336C111.169 165.322 110.939 165.322 110.745 165.415C110.616 165.479 110.522 165.544 110.429 165.658C110.364 165.737 110.328 165.837 110.321 165.938C110.321 166.002 110.321 166.067 110.343 166.131C110.364 166.224 110.486 166.317 110.551 166.375C110.63 166.439 110.724 166.482 110.824 166.511C110.903 166.554 110.989 166.597 111.075 166.618C111.14 166.64 111.205 166.647 111.269 166.654C111.284 166.654 111.298 166.654 111.313 166.654C111.442 166.661 111.571 166.668 111.7 166.64C111.823 166.611 111.894 166.582 111.995 166.518C112.045 166.489 112.088 166.446 112.124 166.396C112.182 166.339 112.21 166.26 112.232 166.181C112.253 166.102 112.246 166.024 112.232 165.938L112.246 165.959Z" fill="#C42122"/>
<path d="M97.191 7.9854C95.6395 7.74906 94.4615 8.64428 94.7201 9.49653C93.8869 9.36046 93.0393 9.26019 92.1773 9.21722C91.0496 9.15277 88.9594 9.23871 89.1749 10.8573C89.3617 12.2681 89.6274 13.6503 89.9578 15.0111C89.1103 13.9511 88.3489 12.7981 87.7096 11.5448C86.8764 9.91191 81.4749 9.13844 82.028 11.7095C82.5739 14.2519 83.0407 16.8015 83.3424 19.3869C83.4502 20.3179 83.5364 21.249 83.6082 22.1871C83.5866 22.1657 83.5651 22.137 83.5507 22.1227C82.8755 21.1917 82.3009 20.2033 81.7981 19.1649C81.6832 18.9214 81.5898 18.6707 81.4821 18.4272C81.1876 16.3288 80.6704 14.2448 79.9306 12.175C79.6001 11.2583 77.6895 10.6424 76.1667 10.6639C77.4237 9.48221 78.6089 8.21458 79.7223 6.85385C81.0942 5.17084 76.0303 4.21116 74.9457 5.14219C73.7533 6.16632 72.64 7.24774 71.6128 8.39362C70.7293 8.09283 69.695 7.97824 69.0916 8.21458C64.6095 9.96921 60.8673 12.6334 57.7212 16.1713C56.5935 15.362 53.8711 15.1901 53.4402 16.2572C51.8815 20.1246 46.1855 25.4457 48.247 30.0436C48.642 30.9316 49.899 31.4258 50.8113 31.4831C51.3284 31.5117 51.7809 31.5046 52.1832 31.4473C52.1257 31.8698 52.097 32.2852 52.0754 32.6934C51.3069 32.7579 50.6604 33.0229 50.4234 33.5385C50.4162 33.56 50.4018 33.5815 50.3946 33.6101C48.0243 35.4722 47.4281 39.4541 47.0474 42.2329C46.9756 42.7629 47.2126 43.1782 47.6149 43.4862C47.3132 47.375 48.4122 50.784 52.9086 51.0776C53.4761 51.1134 54.022 51.006 54.4673 50.8127C54.4817 52.1805 54.9558 53.3622 56.5647 54.1643C56.6581 54.2073 56.7658 54.2503 56.8808 54.2933C56.7587 55.4893 56.6653 56.6924 56.6006 57.9028C56.457 60.8463 55.4514 66.0099 58.4897 67.7788C59.4019 68.3088 64.6526 68.5881 62.821 66.547C61.8298 65.4369 62.2248 62.6439 62.2104 61.276C62.1889 59.2564 62.2464 57.2367 62.3828 55.2171C62.6414 51.4142 63.173 47.6328 63.9631 43.9016C64.2145 43.0708 63.0939 42.4262 61.8298 42.2257C62.3397 40.7647 62.9144 39.3324 63.5321 37.9C63.5465 37.8642 63.5465 37.8284 63.5608 37.7926C64.0708 37.678 64.4874 37.4488 64.6885 37.1194C65.8091 35.2573 66.2544 32.9871 66.9224 30.9245C67.339 29.6282 67.7843 28.3463 68.2225 27.0643C69.8027 27.0643 71.189 26.3983 72.3957 25.324C72.9273 27.1646 73.8682 28.8977 75.4197 30.4232C76.5043 31.4903 80.2394 32.3783 80.7853 30.2799C81.1157 29.0123 81.3528 27.7518 81.518 26.4842C82.3871 27.0285 83.3424 27.4295 84.3839 27.6229C89.2108 28.5325 89.9435 24.658 89.4981 20.3466C90.7049 21.1988 92.005 21.9651 93.3984 22.6169C94.2316 23.0107 98.7353 23.376 97.8374 21.3564C96.6092 18.5991 95.7257 15.7917 95.1582 12.8697C97.701 13.5572 99.9636 14.8678 101.946 16.823C103.246 18.105 108.755 17.7469 106.938 15.8705C105.81 14.7103 104.575 13.7005 103.268 12.8339C106.996 14.4167 110.07 16.8087 111.14 21.4423C111.485 22.932 116.125 23.376 116.039 21.6643C115.572 12.3111 104.913 9.14561 97.1766 7.9854H97.191ZM57.4267 18.9429C57.6852 19.0431 57.9797 19.1291 58.2886 19.2007C57.0747 20.5758 55.8608 22.2444 54.8337 24.0707C54.6756 24.2569 54.5104 24.4431 54.3452 24.6293C55.2215 22.6741 56.536 20.6975 57.4267 18.9429ZM63.6327 24.6508C63.5824 24.9373 63.6901 25.1808 63.8625 25.3813C63.173 26.8853 62.5049 28.4035 61.88 29.929C61.0899 31.8483 59.9838 34.0112 59.8042 36.0881C59.4594 36.2099 59.1865 36.3889 59.0284 36.6539C57.0532 39.9411 55.7028 43.565 54.9701 47.3249C54.8839 47.7689 54.7906 48.2129 54.7115 48.6426C54.4961 48.5495 54.2447 48.4636 53.9358 48.3991C52.7219 48.1413 53.0739 44.7968 53.7634 41.4952C54.7546 39.6976 55.3436 37.7783 55.5735 35.7014C56.263 35.5653 56.8377 35.2287 57.046 34.6486C58.0157 31.9844 58.2671 29.1842 59.3876 26.5415C60.3932 24.1781 61.7651 22.0511 63.1945 19.9169C63.5249 19.4514 63.3813 19.0575 62.9934 18.7638C63.9056 18.4416 64.7963 18.0835 65.6654 17.6896C64.7388 19.8882 64.0564 22.2158 63.6255 24.6508H63.6327Z" fill="#2B3438"/>
<path opacity="0.81" d="M115.277 10.6281C107.506 7.49122 100.603 2.24166 92.2707 0.522837C83.3496 -1.32489 74.7804 2.15572 66.4699 5.06339C61.8585 6.68194 57.3117 8.4867 52.9876 10.7713C50.3587 12.1607 47.0259 14.1731 47.9812 17.5606C46.1136 20.3466 45.4169 24.5863 44.7776 27.4009C43.1543 34.5626 42.9388 41.9965 43.4775 49.2943C43.8008 53.6487 44.2533 59.2205 49.4106 60.3521C50.409 60.5741 51.3571 60.5455 52.3627 60.4165C52.8727 60.3521 53.6341 60.481 53.5335 60.3163C54.0866 60.8033 54.5679 62.1067 54.8911 62.7226C56.5791 65.9311 57.7068 69.3759 58.461 72.9138C58.8417 74.6971 63.1657 74.869 63.7045 73.1573C67.5617 60.789 65.9168 45.2551 74.608 34.8706C76.2026 35.3433 78.4724 35.0711 78.2569 33.4955C77.4884 28.0025 84.4773 28.3749 88.0472 28.1457C90.9562 27.9595 93.5995 27.3722 95.9914 25.6391C97.0186 24.8943 97.9523 23.7341 99.1303 23.2256C100.617 22.581 102.169 23.4046 103.77 23.3044C104.97 23.2256 106.306 22.8174 107.132 22.0009C110.494 23.0609 114.193 23.2327 116.678 20.5542C118.876 20.1604 120.916 18.8856 121.103 16.4076C121.361 12.9127 117.928 11.6952 115.285 10.6281H115.277Z" fill="#2B3438"/>
<path d="M61.8009 158.676C60.7522 158.418 59.5958 158.411 58.5399 158.69C55.1711 146.186 55.6811 133.774 58.4034 121.17C58.7554 119.551 54.5462 119.1 54.0075 120.647C49.6978 132.951 50.0713 146.615 53.4616 159.098C45.934 165.308 59.1001 177.54 64.8967 169.447C67.6406 165.615 66.7283 159.893 61.8081 158.683L61.8009 158.676Z" fill="black"/>
<path d="M119.206 98.5528C116.628 97.7364 113.058 98.4167 110.616 99.4695C109.847 99.7989 109.617 100.458 110.242 101.067C110.961 101.754 112.203 101.89 113.137 101.733C114.236 101.554 115.335 101.332 116.448 101.238C117.662 101.138 118.819 101.195 119.989 100.816C121.764 100.243 120.155 98.8464 119.206 98.5456V98.5528Z" fill="black"/>
<path d="M123.178 93.024C119.888 92.5299 116.376 91.7564 113.036 92.05C109.94 92.3222 106.694 93.5898 103.878 94.8359C101.529 95.8672 105.178 97.2853 106.334 97.0418C108.834 96.5189 111.305 95.4375 113.819 95.0651C116.721 94.6426 119.939 95.5449 122.826 95.8887C126.023 96.2754 126.346 93.5038 123.171 93.024H123.178Z" fill="black"/>
<path d="M121.598 87.5523C118.904 86.299 115.119 86.0627 112.296 87.0009C111.585 87.2372 111.291 87.9032 111.743 88.5048C112.282 89.2282 113.503 89.4287 114.336 89.4144C115.27 89.3929 116.189 89.2711 117.123 89.3571C118.107 89.443 119.077 89.7367 120.047 89.9157C120.743 90.0446 122.137 89.9372 122.561 89.2138C122.984 88.4762 122.216 87.8388 121.605 87.5595L121.598 87.5523Z" fill="black"/>
<path d="M117.834 64.377C116.843 63.4388 112.146 63.317 113.654 65.1719C115.514 67.4565 119.135 70.6865 118.883 73.9379C118.581 77.927 112.203 78.0559 109.395 78.0416C106.5 78.0272 107.355 80.5553 109.739 80.8132C113.963 81.2644 120.679 80.6771 123.265 76.6808C125.958 72.5127 120.607 67.0053 117.827 64.377H117.834Z" fill="black"/>
<path d="M101.041 56.3056C99.2592 55.6682 96.5944 55.6109 95.2009 56.7926C94.9567 56.9144 94.7771 57.0719 94.7125 57.2796C94.6981 57.3226 94.6837 57.3727 94.6622 57.4157C94.3031 57.9528 94.1163 58.5616 94.0445 59.1918C93.7715 60.1228 93.6925 61.0467 94.26 61.9276C94.2743 61.9777 94.2815 62.035 94.2959 62.0851C94.7197 63.8684 96.3861 64.8925 98.8714 64.9785C100.947 65.0573 102.29 64.2552 102.922 63.0018C105.221 61.1398 104.144 57.4085 101.033 56.2913L101.041 56.3056Z" fill="black"/>
<path d="M127.984 57.1221C128.056 56.5348 127.503 56.1338 126.763 55.9261C126.684 55.8831 126.612 55.833 126.526 55.7972C126.159 55.6253 125.743 55.4964 125.297 55.4176C124.91 55.3102 124.514 55.2529 124.17 55.2385C123.516 55.2171 122.245 55.2815 121.893 55.9905C121.771 56.2412 121.663 56.499 121.562 56.764C121.117 57.5661 120.945 58.669 120.966 59.5141C120.988 60.7101 121.39 61.9706 122.403 62.7083C123.681 63.6393 125.965 63.9043 127.266 62.873C127.74 62.5006 128.027 62.0064 128.171 61.4621C128.688 60.0656 128.724 58.3611 127.984 57.1078V57.1221Z" fill="black"/>
<path d="M104.402 50.1609C102.513 46.5513 97.4135 46.093 93.7502 46.5227C89.5913 47.0097 85.4253 49.0651 83.2345 52.7319C82.193 54.4794 86.6104 55.0094 87.5873 53.928C89.7422 51.5359 96.8604 46.2577 99.6473 50.6694C100.452 51.9441 105.286 51.8439 104.402 50.1609Z" fill="black"/>
<path d="M151.838 128.095C148.405 117.682 140.482 110.563 132.926 103.029C132.904 103.007 132.875 102.993 132.854 102.979C134.053 100.587 135.088 98.1231 135.842 95.6809C137.652 89.8155 137.544 83.5704 137.623 77.4901C137.709 70.9299 138.313 64.1478 137.314 57.6521C137.271 57.3799 133.601 41.5811 131.151 34.2045C130.067 30.9316 128.759 27.7159 126.942 24.7725C126.03 23.2972 125.017 21.8934 123.825 20.633C121.936 18.6205 121.634 18.1908 124.45 16.7298C125.829 16.0137 125.348 15.0468 124.184 14.4094C114.458 9.06676 104.079 2.7859 92.8667 1.46814C83.2058 0.336587 72.3668 2.62118 63.2949 6.37394C53.1671 10.5636 48.5628 10.5421 45.2659 19.1577C41.7104 28.4608 40.9346 48.0553 43.9299 57.7738C42.4646 58.4542 41.1429 59.4568 40.1014 60.7746C36.1652 65.7806 37.6521 72.613 40.2092 77.8482C42.2347 81.9948 44.6985 86.8863 48.8358 89.2998C48.922 91.8852 49.3386 94.3918 50.021 96.791C38.593 110.986 34.2761 129.592 36.6106 147.561C38.708 163.718 45.8477 182.911 60.982 191.204C65.4426 193.647 70.2982 194.964 75.2687 195.444C74.6797 210.025 72.6111 224.664 73.983 239.217C74.1195 240.635 75.9726 240.95 77.1147 240.971C84.0893 241.107 91.0207 240.62 97.9163 239.568C98.4837 239.482 99.2666 239.152 99.36 238.501C99.8916 234.59 96.5156 232.191 93.075 231.317C90.6041 230.687 87.9608 230.68 85.4253 230.501C83.45 230.358 81.3239 230.021 79.3845 230.501C79.1834 230.551 78.9822 230.615 78.7883 230.687C78.7883 218.999 80.4547 207.34 80.0884 195.659C82.8825 195.637 85.6767 195.387 88.4349 194.943C95.3807 193.818 108.489 193.589 108.475 193.904C108.037 201.381 108.59 205.778 107.857 213.255C107.211 219.823 105.465 226.497 105.832 233.115C106.141 238.687 111.959 237.612 116.319 237.87C121.433 238.171 128.336 239.596 132.911 236.581C133.112 236.445 133.292 236.309 133.471 236.173C134.463 236.03 134.93 229.598 131.661 228.388C126.396 226.433 119.738 226.963 114.43 228.417C113.561 228.653 112.304 228.889 111.219 229.333C111.528 225.094 112.339 220.897 112.814 216.679C113.754 208.292 114.71 201.575 113.51 193.188C113.388 192.343 116.039 192.486 118.538 191.756C119.982 191.333 128.623 187.709 130.95 185.847C131.625 185.31 132.315 184.802 133.026 184.315C141.969 178.191 147.902 166.919 151.551 156.413C154.69 147.36 154.848 137.212 151.845 128.102L151.838 128.095ZM45.0217 76.0578C43.7288 73.0785 42.9387 69.8915 43.4199 66.6329C43.7719 64.2265 45.1869 61.4836 47.3489 60.2088C47.8446 60.1515 48.2683 59.9868 48.5054 59.7003C49.2811 59.4711 50.1215 59.4067 51.0266 59.6001C52.3913 59.8937 55.5374 58.755 52.9659 57.6377C51.4934 56.9932 49.906 56.7139 48.333 56.7497C45.8046 39.6904 43.1111 15.5768 64.8895 10.0694C74.2631 7.69886 84.3335 3.07237 93.7789 4.51189C102.528 5.84397 111.032 10.8644 118.833 15.2473C116.843 16.2142 115.155 17.3815 117.037 19.6447C118.352 21.2274 119.939 22.4019 121.138 24.1064C122.553 26.126 123.631 28.3533 124.557 30.6379C126.72 35.9949 128.257 41.6169 129.528 47.289C125.283 44.9113 119.673 46.2864 115.917 49.0723C114.171 50.3614 118.222 51.4715 119.242 50.9558C121.742 49.6954 124.665 47.7474 127.251 49.7455C127.854 50.211 129.14 50.3328 130.153 50.1537C134.333 59.2635 132.451 70.9729 132.38 76.1723C132.301 82.0593 132.451 88.111 130.9 93.8404C129.384 99.4337 126.131 105.922 122.338 110.363C118.172 115.24 111.312 117.725 105.272 119.315C98.1461 121.198 83.3279 124.428 69.9749 116.113C62.5694 111.501 58.0945 104.468 55.3937 96.6406C55.4656 96.5475 54.0649 92.2147 53.7489 90.7895C57.6707 91.1046 62.0163 89.7152 63.7546 86.1415C64.8033 83.993 59.8256 83.463 58.7194 84.7593C55.9181 88.0608 52.8295 88.4619 50.0353 84.9025C47.9882 82.2956 46.3146 79.0657 45.0001 76.0434L45.0217 76.0578ZM114.559 130.229C114.861 131.97 115.442 133.91 115.392 135.686C115.284 139.303 110.831 139.654 107.987 139.976C106.945 140.098 105.911 140.177 104.862 140.184C103.928 140.213 102.995 140.184 102.068 140.091C102.068 139.876 102.075 139.668 102.082 139.454C101.17 137.964 101.12 135.293 100.876 133.595C100.833 133.28 100.574 133.029 100.215 132.836C102.441 130.201 103.821 125.904 104.74 123.06C105.509 122.888 106.27 122.681 107.024 122.48C109.524 124.657 111.621 128.059 114.581 129.792C114.545 129.921 114.53 130.064 114.559 130.222V130.229ZM102.944 161.089C103.648 154.987 104.661 148.943 105.702 142.898C106.995 142.82 108.224 142.669 109.215 142.569C110.68 142.419 112.526 142.247 114.3 141.831C115.507 147.231 117.253 152.474 119.652 157.473C120.205 158.626 121.555 160.266 121.462 161.583C121.397 162.479 119.831 164.04 119.278 164.871C118.308 166.332 117.339 167.793 116.369 169.254C115.651 170.335 114.839 172.297 113.819 173.092C111.707 174.739 108.102 171.051 106.342 169.554C105.207 168.595 103.153 167.162 102.607 165.673C102.161 164.462 102.801 162.342 102.944 161.089ZM116.506 127.128C114.243 125.796 112.72 123.146 110.594 121.449C112.943 120.69 115.22 119.816 117.382 118.821C118.711 118.205 120.011 117.524 121.268 116.779C122.532 118.541 123.631 120.439 124.586 122.437C123.322 123.433 122.065 124.428 120.801 125.424C120.126 125.961 119.436 126.655 118.689 127.085C117.332 127.873 117.892 127.952 116.513 127.135L116.506 127.128ZM99.8772 123.991C98.6058 127.322 96.4653 132.213 94.1812 132.478C90.2522 132.936 85.2816 129.599 82.3438 127.422C82.3366 127.422 82.3223 127.415 82.3151 127.407C82.5234 126.326 82.7317 125.259 82.9616 124.221C84.0318 124.385 85.102 124.514 86.1723 124.593C90.6113 124.915 95.2658 124.693 99.8772 123.991ZM75.3693 192.558C73.2719 192.357 71.1745 191.963 69.0986 191.297C52.7935 186.048 45.1079 166.575 42.3569 151.22C39.2826 134.032 42.6585 116.414 51.8741 101.761C56.7585 112.203 66.951 120.067 78.2352 123.204C71.5695 145.742 73.71 178.105 96.336 189.844C90.9704 191.219 75.3836 192.114 75.3693 192.558ZM127.151 184.594C125.994 185.267 119.846 187.91 118.531 188.175C111.348 189.607 109.912 189.607 102.01 189.607C80.9791 180.225 78.3142 152.216 81.7117 130.824C85.9496 133.452 91.0495 135.171 95.9482 135.156C96.1924 135.156 96.4222 135.128 96.6521 135.092C96.8388 137.534 97.1549 140.485 99.0296 141.781C99.6545 142.211 100.409 142.497 101.242 142.676C100.323 146.608 99.5899 150.583 98.9937 154.579C98.6633 156.778 98.3903 158.976 98.1389 161.182C97.9809 162.607 97.5068 164.384 97.9594 165.809C98.8572 168.631 102.959 171.237 105.221 172.899C107.57 174.625 110.529 176.931 113.596 177.017C116.735 177.103 117.827 175.055 119.4 172.67C120.607 170.843 121.821 169.01 123.028 167.184C123.968 165.759 125.549 164.14 126.052 162.529C126.834 160.051 123.444 155.668 122.482 153.312C120.815 149.229 119.573 145.018 118.66 140.714C118.617 140.499 118.488 140.32 118.316 140.155C118.481 140.034 118.646 139.898 118.797 139.761C121.16 137.577 119.874 133.588 119.278 130.723C121.792 130.215 124.141 128.188 126.217 126.283C129.068 133.953 130.21 142.59 130.864 150.175C131.769 160.588 131.862 175.348 127.151 184.58V184.594ZM148.297 146.988C146.903 157.644 141.516 173.135 131.46 181.013C134.125 172.949 136.538 157.902 135.648 149.408C134.412 137.663 132.279 123.963 124.234 114.738C125.829 113.485 127.28 112.053 128.465 110.348C129.298 109.145 130.11 107.877 130.886 106.567C136.258 111.824 141.775 117.166 144.957 124.027C148.261 131.167 149.31 139.203 148.297 146.981V146.988Z" fill="black"/>
<path d="M68.8398 30.3587C61.5276 43.4289 59.5164 59.3423 59.5883 74.1169C59.5955 75.8358 63.9339 76.3872 64.1494 74.6612C65.9954 59.8364 66.1821 45.0975 73.7026 31.6836C74.7441 29.8287 69.7376 28.7473 68.847 30.3515L68.8398 30.3587Z" fill="black"/>
<path d="M85.9209 31.612C82.667 25.9041 78.4866 20.8622 71.3684 20.8479C68.8041 20.8479 69.5296 23.1253 71.6773 23.3187C76.1953 23.7269 78.7955 28.2173 80.7995 31.7624C81.7333 33.4168 86.869 33.2807 85.9209 31.612Z" fill="black"/>
<path d="M96.7454 28.2173C93.7573 23.1754 87.9751 19.4155 82.3653 17.9545C80.8784 17.5678 77.6892 18.907 80.3325 20.01C85.2312 22.0439 88.5354 24.794 92.0047 28.7186C92.8594 29.6855 97.7653 29.9361 96.7454 28.2173Z" fill="black"/>
<path d="M96.2999 15.0038C95.3805 14.1659 90.8841 13.9582 92.3278 15.7558C93.8937 17.7181 95.7181 19.4656 97.1619 21.521C98.8139 23.8629 99.4891 26.2119 100.121 28.9621C100.444 30.3729 104.51 30.8169 104.711 29.1697C105.379 23.5621 100.064 18.4271 96.2928 14.9966L96.2999 15.0038Z" fill="black"/>
<path d="M104.79 13.7076C103.957 13.3853 102.485 13.0773 101.745 13.772C100.991 14.481 101.623 15.0969 102.334 15.4908C105.717 17.3744 109.043 19.1004 109.071 23.4762C109.086 25.2809 113.439 25.8324 113.834 24.0491C115.012 18.7566 108.885 15.276 104.79 13.7076Z" fill="black"/>
</g>
</g>
<defs>
<clipPath id="clip0_15_3870">
<rect width="248" height="240" fill="white"/>
</clipPath>
<clipPath id="clip1_15_3870">
<rect width="118" height="241" fill="white" transform="translate(36)"/>
</clipPath>
</defs>
</svg>
